<?xml version="1.0" encoding="UTF-8"?>
<svg version="1.1" xmlns="http://www.w3.org/2000/svg" width="324" height="80">
<path d="M0 0 C2.24186097 1.39892125 4.46415801 2.82449717 6.68164062 4.26171875 C7.40544922 4.71160156 8.12925781 5.16148438 8.875 5.625 C9.52283447 6.04281738 10.17066895 6.46063477 10.83813477 6.89111328 C13.58143097 7.95522362 15.08325416 7.53673513 17.87109375 6.6796875 C20.04049263 5.65707849 20.04049263 5.65707849 22.12109375 4.359375 C22.89453125 3.90691406 23.66796875 3.45445313 24.46484375 2.98828125 C26.07245595 2.03049931 27.67662834 1.06692061 29.27734375 0.09765625 C30.05078125 -0.35222656 30.82421875 -0.80210938 31.62109375 -1.265625 C32.3171875 -1.68344238 33.01328125 -2.10125977 33.73046875 -2.53173828 C37.29500575 -3.84486037 39.52368898 -2.89045909 42.927948 -1.44996643 C45.96382846 0.11733288 48.3536005 1.35615543 49.63531494 4.63424683 C49.96569529 7.02442442 50.03273171 9.29422309 50.00390625 11.70703125 C50.02250198 13.00683678 50.02250198 13.00683678 50.04147339 14.332901 C50.05564634 16.16093464 50.04936039 17.98922704 50.02392578 19.81713867 C49.99617655 22.60885712 50.06426515 25.38715126 50.140625 28.17773438 C50.25118883 40.97845613 50.25118883 40.97845613 46.74121094 45.30517578 C43.17545119 47.59953216 40.57366004 48.84463923 36.29321289 48.42993164 C33.84059585 47.67024087 32.02404237 46.7528717 29.875 45.359375 C29.15119141 44.90691406 28.42738281 44.45445313 27.68164062 43.98828125 C26.18216001 43.03205295 24.68733774 42.06848053 23.19726562 41.09765625 C19.94932025 39.08248658 17.73630212 37.71573785 13.87109375 37.5546875 C8.85777295 39.4346828 4.53739561 42.36012956 0.06054688 45.26171875 C-5.3829118 48.64509734 -5.3829118 48.64509734 -8.65625 48.796875 C-18.46763307 44.36392783 -18.46763307 44.36392783 -19.89613342 40.72558594 C-20.20572985 38.33630517 -20.26444541 36.06143669 -20.2265625 33.65234375 C-20.23658798 32.78580673 -20.24661346 31.91926971 -20.25694275 31.026474 C-20.26674476 29.19839345 -20.25626504 27.37010579 -20.22680664 25.54223633 C-20.19152012 22.75119414 -20.24675518 19.97197295 -20.31054688 17.18164062 C-20.38678959 4.44795906 -20.38678959 4.44795906 -17.26123047 0.05419922 C-10.9882786 -4.51046402 -6.40823619 -3.74769328 0 0 Z M-7.12890625 9.6796875 C-7.12890625 18.2596875 -7.12890625 26.8396875 -7.12890625 35.6796875 C1.94997981 30.73423151 1.94997981 30.73423151 10.80078125 25.46484375 C13.55269796 24.42119232 15.04210488 24.93966955 17.87109375 25.6796875 C20.07519531 26.71118164 20.07519531 26.71118164 22.26171875 27.96484375 C23.44894531 28.63676758 23.44894531 28.63676758 24.66015625 29.32226562 C25.87832031 30.02512695 25.87832031 30.02512695 27.12109375 30.7421875 C28.75033193 31.6722744 30.38049004 32.60075236 32.01171875 33.52734375 C32.72875977 33.93992432 33.44580078 34.35250488 34.18457031 34.77758789 C35.69928636 35.75829659 35.69928636 35.75829659 36.87109375 35.6796875 C36.87109375 27.0996875 36.87109375 18.5196875 36.87109375 9.6796875 C27.49105987 14.22355705 27.49105987 14.22355705 18.78515625 19.89453125 C15.75923035 21.1357784 14.01190696 20.57284472 10.87109375 19.6796875 C7.82732583 18.15960843 4.94906024 16.40863604 2.05859375 14.6171875 C0.53224467 13.68716766 -0.99504736 12.75869299 -2.5234375 11.83203125 C-3.19221924 11.41945068 -3.86100098 11.00687012 -4.55004883 10.58178711 C-5.97055109 9.59700491 -5.97055109 9.59700491 -7.12890625 9.6796875 Z " fill="#000000" transform="translate(19.12890625,17.3203125)"/>
<path d="M0 0 C3.3 0 6.6 0 10 0 C10.33 3.96 10.66 7.92 11 12 C11.66 11.34 12.32 10.68 13 10 C17.21462147 9.19868257 21.31947222 9.08473988 25.14453125 11.16796875 C29.43406531 14.68087138 31.61559229 18.00966557 32.3359375 23.61328125 C32.42757074 29.94513835 31.84552569 34.8218664 28 40 C24.18903008 43.58679522 20.19233076 43.32320389 15.20703125 43.30078125 C13 43 13 43 11 41 C10.67 41.66 10.34 42.32 10 43 C6.7 43 3.4 43 0 43 C0 28.81 0 14.62 0 0 Z M10.0625 20.5625 C8.60140579 23.91442201 8.6120765 26.37938067 9 30 C10.35374123 32.57210833 11.28879548 33.64439774 13.875 34.9375 C17.18240195 35.03477653 18.54019317 34.19388177 21 32 C22.39855202 28.07557827 22.30922635 24.92767904 21 21 C19.04766003 18.6570296 19.04766003 18.6570296 15.5 18.4375 C12.05031717 18.69493804 12.05031717 18.69493804 10.0625 20.5625 Z " fill="#000000" transform="translate(259,19)"/>
<path d="M0 0 C10.23 0 20.46 0 31 0 C31 9.00014198 31 9.00014198 28.04296875 13.015625 C27.42486328 13.87414063 26.80675781 14.73265625 26.16992188 15.6171875 C25.51572266 16.48601563 24.86152344 17.35484375 24.1875 18.25 C23.54490234 19.13429688 22.90230469 20.01859375 22.24023438 20.9296875 C20.5119139 23.30097901 18.76292448 25.65437589 17 28 C16.01 29.32 15.02 30.64 14 32 C19.61 32.33 25.22 32.66 31 33 C31 36.3 31 39.6 31 43 C20.44 43 9.88 43 -1 43 C-1 32.87662942 -1 32.87662942 1.703125 29.39453125 C2.27160156 28.63849609 2.84007812 27.88246094 3.42578125 27.10351562 C4.02777344 26.34748047 4.62976563 25.59144531 5.25 24.8125 C6.4225585 23.27786575 7.59444827 21.74272028 8.765625 20.20703125 C9.28930664 19.5416333 9.81298828 18.87623535 10.35253906 18.19067383 C12.34577086 15.54021903 14.16044457 12.75933315 16 10 C10.72 9.67 5.44 9.34 0 9 C0 6.03 0 3.06 0 0 Z " fill="#000000" transform="translate(134,19)"/>
<path d="M0 0 C3.91075925 1.98968453 5.57689098 3.36533646 8 7 C9.25382275 12.22955186 9.14927432 17.46810461 9.125 22.8125 C9.13080078 24.11864258 9.13080078 24.11864258 9.13671875 25.45117188 C9.13542969 26.27810547 9.13414062 27.10503906 9.1328125 27.95703125 C9.13168457 28.70960205 9.13055664 29.46217285 9.12939453 30.23754883 9 32 9 32 8 33 C6.37649507 33.07273768 4.74999532 33.08369559 3.125 33.0625 C1.79855469 33.04896484 1.79855469 33.04896484 0.4453125 33.03515625 C-0.36164063 33.02355469 -1.16859375 33.01195312 -2 33 C-3.76885038 33 -5.53912073 33.0328955 -7.3046875 33.140625 C-14.28514589 33.43766578 -14.28514589 33.43766578 -18.0625 31.125 C-20.5703929 28.37440779 -20.95767187 27.44867818 -21.3125 23.6875 C-20.93368958 19.21753703 -20.39978295 17.91409967 -17 15 C-12.0274003 12.91201126 -7.40037837 11.8164451 -2 12 C-2.33 11.01 -2.66 10.02 -3 9 C-5.41619823 8.74969023 -5.41619823 8.74969023 -8 9 C-8.99 10.485 -8.99 10.485 -10 12 C-12.3828125 12.29296875 -12.3828125 12.29296875 -15.125 12.1875 C-16.03507813 12.16042969 -16.94515625 12.13335937 -17.8828125 12.10546875 C-18.58148438 12.07066406 -19.28015625 12.03585938 -20 12 C-19.49607061 7.59061785 -18.0379639 5.21156184 -15 2 C-10.33458998 -0.90449604 -5.31773273 -0.63874358 0 0 Z M-11 22 C-10.67 22.99 -10.34 23.98 -10 25 C-7.12635209 25.41746608 -7.12635209 25.41746608 -4 25 C-2.0645852 22.60943058 -2.0645852 22.60943058 -1 20 C-5.17587745 18.60804085 -7.13474776 20.17676781 -11 22 Z " fill="#000000" transform="translate(244,29)"/>
<path d="M0 0 C4.29 0 8.58 0 13 0 C15.31 4.29 17.62 8.58 20 13 C22.61662462 10.38337538 23.9333126 8.56118424 25.625 5.375 C27.91666667 1.08333333 27.91666667 1.08333333 29 0 C31.01964199 -0.07244053 33.04167124 -0.08377188 35.0625 -0.0625 C36.71958984 -0.04896484 36.71958984 -0.04896484 38.41015625 -0.031515625 C39.26480469 -0.02355469 40.11945313 -0.01195313 41 0 C39.74008944 3.41028703 38.29106416 6.25160368 36.21484375 9.23046875 C28.58603976 20.65746294 25.13363012 29.20472575 26 43 C22.37 43 18.74 43 15 43 C15.09023437 41.9790625 15.18046875 40.958125 15.2734375 39.90625 C15.84906089 25.19606542 9.13891487 15.04472867 1.26928711 3.03100586 C0 1 0 1 0 0 Z " fill="#000000" transform="translate(90,19)"/>
<path d="M0 0 C5.02365168 2.29149024 7.00260311 4.89554128 9 10 C9 10.66 9 11.32 9 12 C7.37581255 12.08090971 5.75048255 12.13914995 4.125 12.1875 C3.22007812 12.22230469 2.31515625 12.25710937 1.3828125 12.29296875 C0.20332031 12.14794922 0.20332031 12.14794922 -1 12 C-1.66 11.01 -2.32 10.02 -3 9 C-6.06556598 8.26656572 -6.06556598 8.26656572 -9 8 C-9 8.99 -9 9.98 -9 11 C-7.67935547 11.25523438 -7.67935547 11.25523438 -6.33203125 11.515625 C-5.17058594 11.75796875 -4.00914062 12.0003125 -2.8125 12.25 C-1.66394531 12.48203125 -0.51539063 12.7140625 0.66796875 12.953125 C4.30080734 14.09450922 6.34770563 15.27906955 9 18 C9.93710383 21.08141789 9.71348453 23.87293109 9 27 C6.81840855 29.75569447 5.12822506 31.43588747 2 33 C-10.3175664 34.03780601 -10.3175664 34.03780601 -14.625 31.25 C-18.6056338 27.47887324 -18.6056338 27.47887324 -20 25 C-20 23.68 -20 22.36 -20 21 C-18.37581255 20.91909029 -16.75048255 20.86085005 -15.125 20.8125 C-14.22007812 20.77769531 -13.31515625 20.74289063 -12.3828125 20.70703125 C-11.20332031 20.85205078 -11.20332031 20.85205078 -10 21 C-9.34 21.99 -8.68 22.98 -8 24 C-4.43230448 24.73606499 -4.43230448 24.73606499 -1 25 C-1.33 24.01 -1.66 23.02 -2 22 C-5.22028721 20.81877889 -8.48116973 20.01886875 -11.80078125 19.16015625 C-15.21928293 17.92047982 -16.80620111 16.87207488 -19 14 C-19.45468446 10.81720877 -19.71154438 9.01359974 -19 6 C-13.52044935 -0.77733896 -8.31151552 -0.77139556 0 0 Z " fill="#000000" transform="translate(315,29)"/>
<path d="M0 0 C3.3 0 6.6 0 10 0 C10 10.89 10 21.78 10 33 C15.94 33 21.88 33 28 33 C28 36.3 28 39.6 28 43 C18.76 43 9.52 43 0 43 C0 28.81 0 14.62 0 0 Z " fill="#000000" transform="translate(190,19)"/>
<path d="M0 0 C3.3 0 6.6 0 10 0 C10 10.89 10 21.78 10 33 C6.7 33 3.4 33 0 33 C0 22.11 0 11.22 0 0 Z " fill="#000000" transform="translate(172,29)"/>
<path d="M0 0 C1.78043992 1.09793795 3.54236392 2.22943831 5.25 3.4375 C5.25 4.7575 5.25 6.0775 5.25 7.4375 C-2.45120259 12.38338344 -2.45120259 12.38338344 -6.75 12.5625 C-11.01185692 10.96430365 -14.8571163 8.78188107 -18.75 6.4375 C-18.75 5.7775 -18.75 5.1175 -18.75 4.4375 C-12.55735365 -1.00851523 -7.72889362 -3.96565851 0 0 Z " fill="#000000" transform="translate(39.75,66.5625)"/>
<path d="M0 0 C2.3359375 1.19140625 2.3359375 1.19140625 4.375 2.5625 C5.06335938 3.01753906 5.75171875 3.47257813 6.4609375 3.94140625 C6.96882813 4.29074219 7.47671875 4.64007813 8 5 C6.69780184 8.90659448 5.19984359 9.55677174 1.6875 11.625 C-2.39985126 13.63678153 -4.06935438 14.29587606 -8.46484375 12.8984375 C-11.55058765 11.1152371 -14.32332918 9.35395165 -17 7 C-17 6.34 -17 5.68 -17 5 C-15.30397484 3.95884577 -13.59251063 2.94281622 -11.875 1.9375 C-10.92367188 1.36902344 -9.97234375 0.80054688 -8.9921875 0.21484375 C-5.4001013 -1.24356201 -3.69032863 -1.07138573 0 0 Z " fill="#000000" transform="translate(38,2)"/>
<path d="M0 0 C3.5 0.25 3.5 0.25 5.5 2.25 C5.25 5.8125 5.25 5.8125 4.5 9.25 C1.73749964 10.63125018 -0.44731099 10.44079306 -3.5 10.25 C-5.5 8.25 -5.5 8.25 -5.75 5.25 C-5.37802459 0.78629509 -4.42019834 0.31572845 0 0 Z " fill="#000000" transform="translate(177.5,17.75)"/>
</svg>
