<?xml version="1.0" encoding="UTF-8"?>
<svg version="1.1" xmlns="http://www.w3.org/2000/svg" width="1252" height="396">
<path d="M0 0 C1.07572266 -0.00386719 2.15144531 -0.00773437 3.25976562 -0.01171875 C11.33671582 -0.00182659 18.64994478 0.33861628 26.3125 3.125 C27.64161682 3.47476758 28.97332739 3.81596017 30.3125 4.125 C30.3125 4.785 30.3125 5.445 30.3125 6.125 C33.2825 6.455 36.2525 6.785 39.3125 7.125 C39.3125 7.785 39.3125 8.445 39.3125 9.125 C40.364375 9.2075 41.41625 9.29 42.5 9.375 C46.7258633 10.20631737 48.12861128 11.33909737 51.3125 14.125 C53.00728892 15.11629163 54.70323022 16.10613167 56.41796875 17.0625 C58.44435179 18.19894575 60.44755673 19.36328748 62.4375 20.5625 C63.05882812 20.93246094 63.68015625 21.30242187 64.3203125 21.68359375 C66.93902918 23.57831229 69.0608467 25.80842802 71.3125 28.125 C72.56740234 29.34509766 72.56740234 29.34509766 73.84765625 30.58984375 C82.55191777 39.10575958 82.55191777 39.10575958 85.3125 44.125 C85.3125 44.785 85.3125 45.445 85.3125 46.125 C85.9725 46.125 86.6325 46.125 87.3125 46.125 C87.3125 46.785 87.3125 47.445 87.3125 48.125 C87.9725 48.125 88.6325 48.125 89.3125 48.125 C89.81809908 49.56054025 90.3167749 50.9985202 90.8125 52.4375 C91.23015625 53.63826172 91.23015625 53.63826172 91.65625 54.86328125 C92.3125 57.125 92.3125 57.125 92.3125 60.125 C92.9725 60.125 93.6325 60.125 94.3125 60.125 C95.32108422 62.53839796 96.31952673 64.95518675 97.3125 67.375 C97.59867188 68.05691406 97.88484375 68.73882812 98.1796875 69.44140625 C99.60595494 72.93915735 100.3125 75.29400189 100.3125 79.125 C100.9725 79.125 101.6325 79.125 102.3125 79.125 C102.65118777 81.33251848 102.98321689 83.54105911 103.3125 85.75 C103.498125 86.97976562 103.68375 88.20953125 103.875 89.4765625 C104.3125 93.125 104.3125 93.125 104.3125 99.125 C86.8225 99.125 69.3325 99.125 51.3125 99.125 C50.6525 95.825 49.9925 92.525 49.3125 89.125 C46.51968201 82.33750117 42.31729534 76.50952776 37.6328125 70.90234375 C36.3125 69.125 36.3125 69.125 36.3125 67.125 C35.755625 66.856875 35.19875 66.58875 34.625 66.3125 C27.60340909 62.70681818 27.60340909 62.70681818 26.3125 60.125 C20.0996597 56.42619275 13.38450122 55.12962073 6.3125 54.125 C6.3125 53.465 6.3125 52.805 6.3125 52.125 C-5.0725 52.62 -5.0725 52.62 -16.6875 53.125 C-16.6875 53.785 -16.6875 54.445 -16.6875 55.125 C-17.80125 55.2075 -18.915 55.29 -20.0625 55.375 C-21.25875 55.6225 -22.455 55.87 -23.6875 56.125 C-24.1515625 57.0840625 -24.1515625 57.0840625 -24.625 58.0625 C-25.6875 60.125 -25.6875 60.125 -27.57421875 60.83203125 C-29.59835279 61.32305155 -31.64261035 61.72921491 -33.6875 62.125 C-33.6875 62.785 -33.6875 63.445 -33.6875 64.125 C-35.33203125 65.67578125 -35.33203125 65.67578125 -37.5 67.4375 C-40.65903986 70.10067646 -42.69551536 72.47302816 -44.6875 76.125 C-45.3475 76.125 -46.0075 76.125 -46.6875 76.125 C-46.88085938 76.70507812 -47.07421875 77.28515625 -47.2734375 77.8828125 C-48.74479167 82.296875 -50.21614583 86.7109375 -51.6875 91.125 C-52.3475 91.125 -53.0075 91.125 -53.6875 91.125 C-53.6875 100.035 -53.6875 108.945 -53.6875 118.125 C-53.0275 118.125 -52.3675 118.125 -51.6875 118.125 C-51.0275 122.085 -50.3675 126.045 -49.6875 130.125 C-49.0275 130.125 -48.3675 130.125 -47.6875 130.125 C-47.213125 131.07375 -46.73875 132.0225 -46.25 133 C-41.79234039 140.76138605 -35.78581256 147.28895721 -27.6875 151.125 C-26.45966797 151.77082031 -26.45966797 151.77082031 -25.20703125 152.4296875 C-18.58268334 155.89352673 -13.60989404 157.25706573 -6.07421875 157.22265625 C-4.82705078 157.21943359 -3.57988281 157.21621094 -2.29492188 157.21289062 C-1.00134766 157.20451172 0.29222656 157.19613281 1.625 157.1875 C2.93791016 157.18298828 4.25082031 157.17847656 5.60351562 157.17382812 C8.8398901 157.16205949 12.07617178 157.1456176 15.3125 157.125 C15.3125 156.465 15.3125 155.805 15.3125 155.125 C16.3025 155.125 17.2925 155.125 18.3125 155.125 C18.3125 154.465 18.3125 153.805 18.3125 153.125 C19.12074219 152.82207031 19.92898437 152.51914063 20.76171875 152.20703125 C26.63328238 149.90515166 31.21223197 148.09502185 35.3125 143.125 C36.158125 142.3 37.00375 141.475 37.875 140.625 C42.05426274 136.33857668 44.68539787 132.95544929 46.3125 127.125 C46.9725 127.125 47.6325 127.125 48.3125 127.125 C48.38597656 126.25488281 48.38597656 126.25488281 48.4609375 125.3671875 C48.53570312 124.58601563 48.61046875 123.80484375 48.6875 123 C48.75710937 122.23429687 48.82671875 121.46859375 48.8984375 120.6796875 C49.3125 118.125 49.3125 118.125 51.3125 112.125 C68.8025 112.125 86.2925 112.125 104.3125 112.125 C103.47026972 124.75845414 101.98134461 134.4091562 98.3125 146.125 C97.6525 146.125 96.9925 146.125 96.3125 146.125 C95.9825 148.105 95.6525 150.085 95.3125 152.125 C94.6525 152.125 93.9925 152.125 93.3125 152.125 C93.3125 153.115 93.3125 154.105 93.3125 155.125 C92.6525 155.125 91.9925 155.125 91.3125 155.125 C91.3125 155.785 91.3125 156.445 91.3125 157.125 C90.6525 157.125 89.9925 157.125 89.3125 157.125 C88.9825 159.105 88.6525 161.085 88.3125 163.125 C87.6525 163.125 86.9925 163.125 86.3125 163.125 C85.6525 165.435 84.9925 167.745 84.3125 170.125 C83.69375 170.2075 83.075 170.29 82.4375 170.375 C80.17777427 170.89486219 80.17777427 170.89486219 79.4609375 172.84375 C77.98013358 175.78521084 76.01367767 177.93083519 73.8125 180.375 C73.0184375 181.26703125 72.224375 182.1590625 71.40625 183.078125 C69.3125 185.125 69.3125 185.125 67.3125 185.125 C66.9825 186.115 66.6525 187.105 66.3125 188.125 C63.87890625 189.94921875 63.87890625 189.94921875 60.875 191.8125 C59.39193359 192.74642578 59.39193359 192.74642578 57.87890625 193.69921875 C55.3125 195.125 55.3125 195.125 53.3125 195.125 C53.3125 195.785 53.3125 196.445 53.3125 197.125 C48.30868723 200.12728766 43.19596671 202.60815623 37.86328125 204.9765625 C35.35938647 206.0625086 35.35938647 206.0625086 33.23046875 207.2734375 C31.3125 208.125 31.3125 208.125 27.3125 208.125 C27.3125 208.785 27.3125 209.445 27.3125 210.125 C-19.6640847 215.66912802 -19.6640847 215.66912802 -37.6875 206.125 C-39.67970557 205.43539038 -41.67855606 204.76420943 -43.6875 204.125 C-45.35913195 203.47088315 -47.02765202 202.80846682 -48.6875 202.125 C-48.6875 201.465 -48.6875 200.805 -48.6875 200.125 C-49.574375 199.83625 -50.46125 199.5475 -51.375 199.25 C-54.19132424 198.29351252 -56.93833156 197.25701054 -59.6875 196.125 C-59.6875 195.465 -59.6875 194.805 -59.6875 194.125 C-60.22375 193.856875 -60.76 193.58875 -61.3125 193.3125 C-62.488125 192.7246875 -62.488125 192.7246875 -63.6875 192.125 C-64.698125 191.67125 -65.70875 191.2175 -66.75 190.75 C-69.67992861 189.12918843 -71.02501555 187.98816766 -72.6875 185.125 C-72.6875 184.465 -72.6875 183.805 -72.6875 183.125 C-73.6775 182.795 -74.6675 182.465 -75.6875 182.125 C-77.265625 180.55859375 -77.265625 180.55859375 -78.9375 178.5625 C-81.65696243 175.3333411 -81.65696243 175.3333411 -84.48828125 172.203125 C-90.66599605 165.57338229 -95.53728067 158.24650676 -96.6875 149.125 C-97.326875 149.021875 -97.96625 148.91875 -98.625 148.8125 C-99.305625 148.585625 -99.98625 148.35875 -100.6875 148.125 C-101.8452506 144.65174819 -101.75616652 141.76432552 -101.6875 138.125 C-102.3475 138.125 -103.0075 138.125 -103.6875 138.125 C-103.80867188 137.55652344 -103.92984375 136.98804688 -104.0546875 136.40234375 C-104.22226563 135.63019531 -104.38984375 134.85804688 -104.5625 134.0625 C-104.72492188 133.30839844 -104.88734375 132.55429688 -105.0546875 131.77734375 C-105.65477702 129.04767477 -105.65477702 129.04767477 -106.73828125 126.19140625 C-110.81533122 112.03816395 -108.97429708 92.10955131 -104.6875 78.125 C-104.43516602 77.2901709 -104.18283203 76.4553418 -103.92285156 75.59521484 C-103.06352489 72.80215707 -102.16663122 70.02475311 -101.25 67.25 C-100.96181396 66.36175537 -100.67362793 65.47351074 -100.37670898 64.55834961 C-100.08868408 63.73729736 -99.80065918 62.91624512 -99.50390625 62.0703125 C-99.25068604 61.33312988 -98.99746582 60.59594727 -98.73657227 59.83642578 C-97.6875 58.125 -97.6875 58.125 -95.57397461 57.37841797 C-94.95143799 57.29479004 -94.32890137 57.21116211 -93.6875 57.125 C-93.6875 56.196875 -93.6875 55.26875 -93.6875 54.3125 C-92.73067201 47.22327447 -86.63966119 40.96832248 -81.6875 36.125 C-80.72635849 34.96064572 -79.76829645 33.79374592 -78.8125 32.625 C-71.82801826 24.63214298 -63.93815147 17.29338318 -53.6875 14.125 C-52.31765802 12.82920353 -50.9723951 11.50507251 -49.6875 10.125 C-48.6975 10.125 -47.7075 10.125 -46.6875 10.125 C-46.6875 9.465 -46.6875 8.805 -46.6875 8.125 C-45.6975 7.87105469 -44.7075 7.61710937 -43.6875 7.35546875 C-42.35388749 7.00888496 -41.02057322 6.66115233 -39.6875 6.3125 C-38.9955957 6.13162842 -38.30369141 5.95075684 -37.59082031 5.7644043 C-34.11154225 4.83646037 -30.75244261 3.84426136 -27.4375 2.4375 C-18.76061428 -0.59941 -9.09763836 -0.03306228 0 0 Z " fill="#000000" transform="translate(144.6875,91.875)"/>
<path d="M0 0 C68.00931099 0 68.00931099 0 80.3125 11.16015625 C82 13 82 13 82 15 C82.66 15 83.32 15 84 15 C84 15.66 84 16.32 84 17 C84.66 17 85.32 17 86 17 C88.60487812 29.69878084 90.06598196 40.74705346 83.703125 52.4765625 C81.99980885 55.00028321 80.30063474 57.00798699 78 59 C77.34 59 76.68 59 76 59 C76 59.66 76 60.32 76 61 C66.65836285 69.14131506 54.62095046 68.27890281 43 68 C46.39762256 72.15654169 49.72719917 75.71323013 54 79 C54.721875 79.7425 55.44375 80.485 56.1875 81.25 C58.69709012 83.70382145 61.24735959 85.83051156 64 88 C67.57702944 90.82258223 70.81762306 93.7338763 74 97 C76.02644016 98.80530086 78.07507124 100.58206515 80.1328125 102.3515625 C83.54392765 105.3630491 83.54392765 105.3630491 85 107 C85 107.66 85 108.32 85 109 C85.598125 109.28875 86.19625 109.5775 86.8125 109.875 C89 111 89 111 92 113 C92 113.66 92 114.32 92 115 C87.9170404 115.14518182 83.83474359 115.23403347 79.75 115.3125 C78.59113281 115.35439453 77.43226563 115.39628906 76.23828125 115.43945312 C67.65811722 115.56344393 67.65811722 115.56344393 64.203125 112.60546875 C63 110 63 110 63 108 C62.34 107.814375 61.68 107.62875 61 107.4375 C56.74703891 105.39962281 53.15393227 102.51393446 50 99 C50 98.01 50 97.02 50 96 C48.9171875 95.690625 48.9171875 95.690625 47.8125 95.375 C44.80574942 93.90503305 43.46776127 92.25917073 41.44921875 89.6484375 C38.74571398 86.57329191 35.31660593 84.36804318 32 82 C28.79503689 79.57847231 26.16137495 77.41269729 24 74 C24 73.34 24 72.68 24 72 C21.69 71.34 19.38 70.68 17 70 C17 84.85 17 99.7 17 115 C11.39 115 5.78 115 0 115 C0 77.05 0 39.1 0 0 Z " fill="#000000" transform="translate(884,140)"/>
<path d="M0 0 C6.93 0 13.86 0 21 0 C24.59528205 3.64975602 25.49871068 4.61388023 27 9 C27.61875 9.969375 28.2375 10.93875 28.875 11.9375 C30 14 30 14 30 16 C30.66 16 31.32 16 32 16 C32.36351562 16.68964844 32.72703125 17.37929687 33.1015625 18.08984375 C36.03021874 23.5641781 39.11128596 28.79831916 42.609375 33.92578125 C48 41.96629213 48 41.96629213 48 45 C48.66 45 49.32 45 50 45 C50.495 47.475 50.495 47.475 51 50 C51.66 50 52.32 50 53 50 C54.22264708 51.84722824 55.35379694 53.75547885 56.4375 55.6875 C57.03433594 56.74324219 57.63117187 57.79898438 58.24609375 58.88671875 C58.82488281 59.91410156 59.40367187 60.94148438 60 62 C60.99473299 63.66981557 61.99368293 65.33713989 63 67 C63.495 67.845625 63.99 68.69125 64.5 69.5625 C65.94038192 72.01161554 65.94038192 72.01161554 67.6875 74.125 C69 76 69 76 69 79 C69.66 79 70.32 79 71 79 C75 85.75 75 85.75 75 88 C75.66 88 76.32 88 77 88 C77 58.96 77 29.92 77 0 C82.61 0 88.22 0 94 0 C94 37.95 94 75.9 94 115 C87.07 115 80.14 115 73 115 C69 107 69 107 68 103 C67.34 103 66.68 103 66 103 C64.5706849 101.02853089 63.27866001 99.06687508 62 97 C61.58234375 96.3503125 61.1646875 95.700625 60.734375 95.03125 C58.23440046 91.11562722 56.07871845 87.1574369 54 83 C53.278125 81.948125 52.55625 80.89625 51.8125 79.8125 C50 77 50 77 50 74 C49.34 74 48.68 74 48 74 C46.27735506 70.70450534 44.70554068 67.66881155 44 64 C43.34 64 42.68 64 42 64 C40.2734375 61.4453125 40.2734375 61.4453125 38.375 58.125 C37.74335937 57.03445312 37.11171875 55.94390625 36.4609375 54.8203125 C35 52 35 52 35 50 C34.34 50 33.68 50 33 50 C32.67 48.35 32.34 46.7 32 45 C31.34 45 30.68 45 30 45 C29.5875 44.13375 29.175 43.2675 28.75 42.375 C27.05324198 38.94599852 27.05324198 38.94599852 24.8125 35.75 C23 33 23 33 23 31 C22.34 31 21.68 31 21 31 C20.01 29.02 19.02 27.04 18 25 C17.67 54.7 17.34 84.4 17 115 C11.39 115 5.78 115 0 115 C0 77.05 0 39.1 0 0 Z " fill="#000000" transform="translate(538,140)"/>
<path d="M0 0 C0.65169159 -0.00095673 1.30338318 -0.00191345 1.974823 -0.00289917 C3.34470721 -0.00357647 4.7145947 -0.00175374 6.08447266 0.00244141 C8.18008604 0.00781352 10.27548681 0.00247232 12.37109375 -0.00390625 C13.70572964 -0.00324573 15.04036539 -0.0019651 16.375 0 C17.58430176 0.00112793 18.79360352 0.00225586 20.03955078 0.00341797 C23.0546875 0.1328125 23.0546875 0.1328125 26.0546875 1.1328125 C26.0546875 1.7928125 26.0546875 2.4528125 26.0546875 3.1328125 C26.62703125 3.26558594 27.199375 3.39835938 27.7890625 3.53515625 C30.03119625 4.12661567 32.14048369 4.86570104 34.3046875 5.6953125 C35.01109375 5.96472656 35.7175 6.23414063 36.4453125 6.51171875 C37.24195313 6.81916016 37.24195313 6.81916016 38.0546875 7.1328125 C38.0546875 7.7928125 38.0546875 8.4528125 38.0546875 9.1328125 C38.7971875 9.3390625 39.5396875 9.5453125 40.3046875 9.7578125 C43.87840639 11.54467195 45.11991246 13.69321243 47.0546875 17.1328125 C47.0546875 17.7928125 47.0546875 18.4528125 47.0546875 19.1328125 C47.7146875 19.1328125 48.3746875 19.1328125 49.0546875 19.1328125 C49.39487902 20.52699023 49.72650529 21.92325908 50.0546875 23.3203125 C50.2403125 24.09761719 50.4259375 24.87492187 50.6171875 25.67578125 C51.0546875 28.1328125 51.0546875 28.1328125 51.0546875 33.1328125 C45.4446875 33.1328125 39.8346875 33.1328125 34.0546875 33.1328125 C33.5184375 31.4003125 32.9821875 29.6678125 32.4296875 27.8828125 C30.53243236 22.56640332 28.97044673 20.70241392 24.0546875 18.1328125 C24.0546875 17.4728125 24.0546875 16.8128125 24.0546875 16.1328125 C18.9096625 14.99315321 13.99281716 14.91212516 8.7421875 14.8828125 C7.83017578 14.8621875 6.91816406 14.8415625 5.97851562 14.8203125 C-0.9432457 14.78061781 -7.01425282 15.43315227 -12.3203125 20.3203125 C-12.8565625 20.9184375 -13.3928125 21.5165625 -13.9453125 22.1328125 C-14.6053125 22.1328125 -15.2653125 22.1328125 -15.9453125 22.1328125 C-16.0536792 24.8630514 -16.13277944 27.58895793 -16.1953125 30.3203125 C-16.22882813 31.08923828 -16.26234375 31.85816406 -16.296875 32.65039062 C-16.36532699 36.63771906 -16.25699567 38.63094977 -14.1015625 42.1015625 C-11.80631125 44.26375571 -9.94336112 45.21674209 -6.9453125 46.1328125 C-6.9453125 46.7928125 -6.9453125 47.4528125 -6.9453125 48.1328125 C-3.47016727 48.63241989 0.00529766 49.12611843 3.484375 49.59765625 C9.33623624 50.40046261 15.1138227 51.23915969 20.8515625 52.65234375 C23.11489703 53.18149332 23.11489703 53.18149332 25.6953125 53.45703125 C33.11840114 54.42120338 38.51882311 57.01840281 44.0546875 62.1328125 C44.3846875 63.1228125 44.7146875 64.1128125 45.0546875 65.1328125 C47.06977108 65.86605046 47.06977108 65.86605046 49.0546875 66.1328125 C49.0546875 66.7928125 49.0546875 67.4528125 49.0546875 68.1328125 C49.7146875 68.1328125 50.3746875 68.1328125 51.0546875 68.1328125 C54.95909889 77.56847337 55.7337114 87.47354258 52.0546875 97.1328125 C51.3946875 97.1328125 50.7346875 97.1328125 50.0546875 97.1328125 C49.7246875 98.7828125 49.3946875 100.4328125 49.0546875 102.1328125 C48.3946875 102.1328125 47.7346875 102.1328125 47.0546875 102.1328125 C46.5596875 104.1128125 46.5596875 104.1128125 46.0546875 106.1328125 C45.3946875 106.1328125 44.7346875 106.1328125 44.0546875 106.1328125 C43.5596875 107.6178125 43.5596875 107.6178125 43.0546875 109.1328125 C41.07373636 110.65662107 39.20754593 111.88893874 37.0546875 113.1328125 C36.28253906 113.58398438 35.51039062 114.03515625 34.71484375 114.5 C29.1749775 117.52174523 25.35628258 118.71629353 19.0546875 118.1328125 C19.0546875 118.7928125 19.0546875 119.4528125 19.0546875 120.1328125 C-3.54020283 120.75198108 -3.54020283 120.75198108 -13.9453125 117.1328125 C-13.9453125 116.4728125 -13.9453125 115.8128125 -13.9453125 115.1328125 C-15.2653125 115.1328125 -16.5853125 115.1328125 -17.9453125 115.1328125 C-17.9453125 114.4728125 -17.9453125 113.8128125 -17.9453125 113.1328125 C-18.6671875 113.0296875 -19.3890625 112.9265625 -20.1328125 112.8203125 C-25.88945007 111.41313443 -28.69709814 108.52415326 -32.02734375 103.8515625 C-32.9453125 102.1328125 -32.9453125 102.1328125 -32.9453125 99.1328125 C-33.5846875 98.9059375 -34.2240625 98.6790625 -34.8828125 98.4453125 C-36.9453125 97.1328125 -36.9453125 97.1328125 -37.6953125 95.0078125 C-38.00942783 91.39548624 -37.9453125 87.75877023 -37.9453125 84.1328125 C-32.0053125 84.1328125 -26.0653125 84.1328125 -19.9453125 84.1328125 C-19.48958333 86.63932292 -19.03385417 89.14583333 -18.578125 91.65234375 C-17.71956306 95.01769456 -16.54875913 96.74138766 -13.6328125 98.6328125 C-11.80050916 99.65549343 -9.96712939 100.67624756 -8.1328125 101.6953125 C-7.4109375 102.1696875 -6.6890625 102.6440625 -5.9453125 103.1328125 C-5.9453125 103.7928125 -5.9453125 104.4528125 -5.9453125 105.1328125 C11.64852392 106.34902092 11.64852392 106.34902092 28.0546875 101.1328125 C32.77099535 96.60186172 34.222734 91.64153197 34.4296875 85.2578125 C34.40345931 80.91442422 34.39115468 79.58749787 31.7421875 76.0078125 C29.86078931 74.69520911 27.96343822 73.40531298 26.0546875 72.1328125 C26.0546875 71.4728125 26.0546875 70.8128125 26.0546875 70.1328125 C25.34070801 70.08092773 24.62672852 70.02904297 23.89111328 69.97558594 C16.19143791 69.37975547 8.57062014 68.49880266 0.9296875 67.3828125 C-0.17246094 67.2384375 -1.27460937 67.0940625 -2.41015625 66.9453125 C-9.57783834 65.89099153 -15.83995146 64.16401012 -21.9453125 60.1328125 C-22.2753125 59.4728125 -22.6053125 58.8128125 -22.9453125 58.1328125 C-23.7496875 57.6584375 -24.5540625 57.1840625 -25.3828125 56.6953125 C-27.9453125 55.1328125 -27.9453125 55.1328125 -29.9453125 52.1328125 C-30.9353125 51.8028125 -31.9253125 51.4728125 -32.9453125 51.1328125 C-37.03734657 41.06270397 -37.04519221 30.40116403 -33.9453125 20.1328125 C-33.2853125 20.1328125 -32.6253125 20.1328125 -31.9453125 20.1328125 C-31.6153125 18.4828125 -31.2853125 16.8328125 -30.9453125 15.1328125 C-30.2853125 15.1328125 -29.6253125 15.1328125 -28.9453125 15.1328125 C-28.6153125 14.1428125 -28.2853125 13.1528125 -27.9453125 12.1328125 C-27.2853125 12.1328125 -26.6253125 12.1328125 -25.9453125 12.1328125 C-25.6153125 11.1428125 -25.2853125 10.1528125 -24.9453125 9.1328125 C-21.0882979 5.45642944 -17.31558893 3.52575956 -11.9453125 3.1328125 C-11.9453125 2.4728125 -11.9453125 1.8128125 -11.9453125 1.1328125 C-7.911332 0.17270417 -4.14147662 0.00385561 0 0 Z " fill="#000000" transform="translate(1132.9453125,137.8671875)"/>
<path d="M0 0 C26.4 0 52.8 0 80 0 C80 4.95 80 9.9 80 15 C59.54 15 39.08 15 18 15 C18 25.89 18 36.78 18 48 C37.14 48 56.28 48 76 48 C76 53.28 76 58.56 76 64 C56.86 64 37.72 64 18 64 C18 75.88 18 87.76 18 100 C38.46 100 58.92 100 80 100 C80 104.95 80 109.9 80 115 C53.6 115 27.2 115 0 115 C0 77.05 0 39.1 0 0 Z " fill="#000000" transform="translate(433,140)"/>
<path d="M0 0 C26.07 0 52.14 0 79 0 C79 4.95 79 9.9 79 15 C58.87 15.33 38.74 15.66 18 16 C18 26.56 18 37.12 18 48 C36.48 48.33 54.96 48.66 74 49 C74 53.95 74 58.9 74 64 C55.19 64 36.38 64 17 64 C17 75.88 17 87.76 17 100 C37.46 100 57.92 100 79 100 C79 104.95 79 109.9 79 115 C52.93 115 26.86 115 0 115 C0 77.05 0 39.1 0 0 Z " fill="#000000" transform="translate(998,140)"/>
<path d="M0 0 C5.94 0 11.88 0 18 0 C18.02505615 2.44736572 18.0501123 4.89473145 18.07592773 7.41625977 C18.15951499 15.5147982 18.24818603 23.61327528 18.33933926 31.71173191 C18.39443378 36.62038061 18.44783171 41.5290354 18.49731445 46.43774414 C18.54515736 51.17752497 18.59750636 55.91723683 18.65294075 60.65693474 C18.67327433 62.46254693 18.69200176 64.26817796 18.70907402 66.07382393 C18.73331836 68.60861114 18.76334392 71.14327036 18.79467773 73.67797852 C18.80331093 74.79036896 18.80331093 74.79036896 18.81211853 75.92523193 C18.87449099 80.38284122 19.2826874 84.61238888 20 89 C20.66 89 21.32 89 22 89 C22.37125 89.9075 22.7425 90.815 23.125 91.75 C26.34164302 97.32551457 31.33500398 99.53079457 37.27734375 101.40625 C42.77170526 102.60444649 48.39467633 102.76877043 54 103 C54 102.34 54 101.68 54 101 C60.58515284 98.08733624 60.58515284 98.08733624 63.375 97.5 C63.91125 97.335 64.4475 97.17 65 97 C65.495 95.515 65.495 95.515 66 94 C67.9375 91.8125 67.9375 91.8125 70 90 C70.66 90 71.32 90 72 90 C72.33 60.3 72.66 30.6 73 0 C78.94 0 84.88 0 91 0 C91 28.05 91 56.1 91 85 C90.34 85 89.68 85 89 85 C88.67 88.3 88.34 91.6 88 95 C87.34 95 86.68 95 86 95 C85.773125 95.515625 85.54625 96.03125 85.3125 96.5625 C79.62160584 107.13130343 71.61968748 113.34078006 60.23046875 117.12890625 C49.3530912 119.79432973 36.98273469 118.5689621 26 117 C26 116.34 26 115.68 26 115 C25.34 115 24.68 115 24 115 C24 114.34 24 113.68 24 113 C23.01 113 22.02 113 21 113 C20.505 112.01 20.505 112.01 20 111 C19.071875 110.54625 18.14375 110.0925 17.1875 109.625 C11.42364097 106.68656207 8.82424395 102.64848789 6 97 C6 95.68 6 94.36 6 93 C5.36548857 92.75437034 4.73097713 92.50874067 4.07723808 92.25566769 C2 91 2 91 1.17985725 89.13649082 C0.19429881 83.85579218 -0.27962088 78.82014588 -0.22705078 73.45092773 C-0.22734283 72.64982071 -0.22763489 71.84871368 -0.22793579 71.02333069 C-0.22655706 68.40996973 -0.21106552 65.79690408 -0.1953125 63.18359375 C-0.19157718 61.35799821 -0.18873266 59.53240064 -0.18673706 57.70680237 C-0.17914149 52.92778887 -0.15952847 48.14889908 -0.1373291 43.36993408 C-0.11678238 38.48296786 -0.10771655 33.59598144 -0.09765625 28.70898438 C-0.07627834 19.13926013 -0.04112989 9.56965976 0 0 Z " fill="#000000" transform="translate(762,140)"/>
<path d="M0 0 C5.94 0 11.88 0 18 0 C18.99 2.64 19.98 5.28 21 8 C21.53625 8.99 22.0725 9.98 22.625 11 C24.3478791 14.75900894 24.64585761 17.89194824 25 22 C25.66 22 26.32 22 27 22 C27.15557373 22.63389648 27.31114746 23.26779297 27.47143555 23.92089844 C31.21881533 39.41443864 31.21881533 39.41443864 36.83984375 54.29296875 C38.62109717 58.44922673 39.8425682 62.75298953 41.10546875 67.08984375 C41.94867247 69.9951107 41.94867247 69.9951107 43.11328125 72.69140625 C44 75 44 75 44 78 C44.66 78 45.32 78 46 78 C46.495 82.455 46.495 82.455 47 87 C47.66 87 48.32 87 49 87 C49.495 90.465 49.495 90.465 50 94 C50.66 94 51.32 94 52 94 C52.33 92.02 52.66 90.04 53 88 C53.66 88 54.32 88 55 88 C55.18175781 87.18208984 55.18175781 87.18208984 55.3671875 86.34765625 C57.18359375 78.17382812 57.18359375 78.17382812 59 70 C59.66 70 60.32 70 61 70 C61.0825 68.88625 61.165 67.7725 61.25 66.625 C61.7866772 62.22269133 63.2838356 58.5355171 65.01171875 54.4765625 C66.38278787 51.04076084 67.1983736 47.60731879 68 44 C68.66 44 69.32 44 70 44 C70.33 41.36 70.66 38.72 71 36 C71.66 36 72.32 36 73 36 C73.33 33.03 73.66 30.06 74 27 C74.66 27 75.32 27 76 27 C76.33 24.36 76.66 21.72 77 19 C77.66 19 78.32 19 79 19 C79.103125 18.05125 79.20625 17.1025 79.3125 16.125 C79.9910919 11.26508446 81.5085476 6.66196126 83 2 C83.66 2 84.32 2 85 2 C85 1.34 85 0.68 85 0 C90.61 0 96.22 0 102 0 C102 2.31 102 4.62 102 7 C101.01 7.66 100.02 8.32 99 9 C98.34468772 11.44933349 98.34468772 11.44933349 98.0625 14.25 C97.28463159 19.29296048 96.03970665 21.97974282 93 26 C92.23060319 28.22602615 92.23060319 28.22602615 92 30 C91.34 30 90.68 30 90 30 C89.9175 31.2375 89.835 32.475 89.75 33.75 C88.92059304 41.16793552 86.51183474 48.35801516 83 54.9375 C79.5327747 61.44711271 77.71658133 68.85624738 76 76 C75.34 76 74.68 76 74 76 C73.896875 76.969375 73.79375 77.93875 73.6875 78.9375 C73.05370121 83.48593839 71.55244173 87.69417104 70 92 C69.34 92 68.68 92 68 92 C67.93941406 92.67546875 67.87882812 93.3509375 67.81640625 94.046875 C67.69072266 95.38492188 67.69072266 95.38492188 67.5625 96.75 C67.44068359 98.07257813 67.44068359 98.07257813 67.31640625 99.421875 C67.03761535 101.69350452 66.61209423 103.79851823 66 106 C65.34 106 64.68 106 64 106 C63.814375 107.918125 63.814375 107.918125 63.625 109.875 C63.25 113.75 63.25 113.75 61 116 C58.93701172 116.22705078 58.93701172 116.22705078 56.4296875 116.1953125 C55.53378906 116.18886719 54.63789063 116.18242187 53.71484375 116.17578125 C52.30912109 116.15064453 52.30912109 116.15064453 50.875 116.125 C49.45767578 116.11146484 49.45767578 116.11146484 48.01171875 116.09765625 C45.67422708 116.07404522 43.33723877 116.04111516 41 116 C40.68546875 115.01 40.3709375 114.02 40.046875 113 C38.04247082 106.78516567 36.08440523 100.7996097 32.98046875 95.03515625 C30.24934524 89.3661708 28 83.3037727 28 77 C27.34 77 26.68 77 26 77 C25.7525 75.906875 25.505 74.81375 25.25 73.6875 C24.37560969 70.14590472 23.22167911 66.78858155 21.9375 63.375 C20.51935239 59.58448649 19.43767821 56.04852344 19 52 C18.34 52 17.68 52 17 52 C16.7733667 51.32420898 16.5467334 50.64841797 16.31323242 49.95214844 C15.27891304 46.88214718 14.2333421 43.81609401 13.1875 40.75 C12.83107422 39.68652344 12.47464844 38.62304688 12.10742188 37.52734375 C11.75615234 36.50253906 11.40488281 35.47773438 11.04296875 34.421875 C10.72352295 33.47924805 10.40407715 32.53662109 10.07495117 31.56542969 C9.00158781 29.00378939 7.69322893 27.18127046 6 25 C5.12109375 22.16015625 5.12109375 22.16015625 4.4375 19.0625 C3.47415679 14.75567668 3.47415679 14.75567668 1.97265625 10.62109375 C1 8 1 8 0 0 Z " fill="#000000" transform="translate(313,140)"/>
<path d="M0 0 C31.02 0 62.04 0 94 0 C94 5.28 94 10.56 94 16 C81.79 16 69.58 16 57 16 C57 49 57 82 57 116 C51.06 116 45.12 116 39 116 C37.06775535 114.06775535 37.87981562 111.16389611 37.87557983 108.59291077 C37.88097275 107.20971901 37.88097275 107.20971901 37.88647461 105.79858398 C37.88632858 104.83283447 37.88618256 103.86708496 37.8860321 102.87207031 C37.88673166 99.66338901 37.89452603 96.45476497 37.90234375 93.24609375 C37.90420778 91.02791882 37.90563175 88.80974348 37.90663147 86.59156799 C37.91045784 80.74059929 37.92028914 74.88965523 37.93133545 69.03869629 C37.94154701 63.07332696 37.94612854 57.10795367 37.95117188 51.14257812 C37.96191131 39.42837282 37.97950907 27.71419231 38 16 C25.46 16 12.92 16 0 16 C0 10.72 0 5.44 0 0 Z " fill="#000000" transform="translate(651,140)"/>
<path d="M0 0 C6.14625 -0.04125 12.2925 -0.0825 18.625 -0.125 C20.55424316 -0.14320801 22.48348633 -0.16141602 24.47119141 -0.18017578 C26.01464561 -0.1860216 27.55810292 -0.19111695 29.1015625 -0.1953125 C29.89135498 -0.20554443 30.68114746 -0.21577637 31.49487305 -0.22631836 C37.9491393 -0.22834227 43.01184013 0.89482341 48.25 4.875 C48.91515625 5.36742187 49.5803125 5.85984375 50.265625 6.3671875 C53.41791028 9.3348795 53.94832232 11.36174706 54.30078125 15.71484375 C54.31531863 17.12232618 54.31891542 18.52995712 54.3125 19.9375 C54.32861328 20.64068359 54.34472656 21.34386719 54.36132812 22.06835938 C54.36551493 26.53568172 53.82546248 29.48707706 51 33 C50.34 33 49.68 33 49 33 C48.67 33.99 48.34 34.98 48 36 C42.41590561 39.14977752 37.66234255 39.40656949 31.34765625 39.29296875 C30.44752304 39.28872391 29.54738983 39.28447906 28.61997986 39.28010559 C25.76717214 39.26341816 22.91509137 39.22578497 20.0625 39.1875 C18.11915088 39.1724403 16.17579061 39.15875415 14.23242188 39.14648438 C9.48778122 39.11610895 4.74469674 39.05736982 0 39 C0 26.13 0 13.26 0 0 Z " fill="#FFFFFF" transform="translate(901,155)"/>
<path d="M0 0 C26.4 0 52.8 0 80 0 C80 4.95 80 9.9 80 15 C59.54 15 39.08 15 18 15 C18 25.89 18 36.78 18 48 C37.14 48 56.28 48 76 48 C76 53.28 76 58.56 76 64 C56.86 64 37.72 64 18 64 C18 75.88 18 87.76 18 100 C38.46 100 58.92 100 80 100 C80 104.95 80 109.9 80 115 C79.67 115 79.34 115 79 115 C78.67 110.71 78.34 106.42 78 102 C47.805 101.505 47.805 101.505 17 101 C17 88.13 17 75.26 17 62 C35.48 62 53.96 62 73 62 C73 58.04 73 54.08 73 50 C54.52 50 36.04 50 17 50 C17 38.12 17 26.24 17 14 C37.13 14 57.26 14 78 14 C78 9.71 78 5.42 78 1 C52.59 1 27.18 1 1 1 C1 38.62 1 76.24 1 115 C0.67 115 0.34 115 0 115 C0 77.05 0 39.1 0 0 Z " fill="#000000" transform="translate(433,140)"/>
<path d="M0 0 C17.49 0 34.98 0 53 0 C52.15776972 12.63345414 50.66884461 22.2841562 47 34 C46.34 34 45.68 34 45 34 C44.67 35.98 44.34 37.96 44 40 C43.3125 38.375 43.3125 38.375 43 36 C43.98210371 33.9911515 44.98440599 31.99212671 46 30 C46.7136724 26.26228166 46.7136724 26.26228166 47 23 C47.66 23 48.32 23 49 23 C49.14654898 21.56257278 49.29217982 20.12505197 49.4375 18.6875 C49.51871094 17.88699219 49.59992188 17.08648437 49.68359375 16.26171875 C50.14454772 11.50990927 50.56777196 6.75450847 51 2 C34.17 2 17.34 2 0 2 C0 1.34 0 0.68 0 0 Z " fill="#000000" transform="translate(196,204)"/>
<path d="M0 0 C1.32 1.32 2.64 2.64 4 4 C3.67 4.66 3.34 5.32 3 6 C2.34 5.67 1.68 5.34 1 5 C1 33.38 1 61.76 1 91 C0.67 91 0.34 91 0 91 C0 60.97 0 30.94 0 0 Z " fill="#FFFFFF" transform="translate(555,164)"/>
<path d="M0 0 C2 1 2 1 2.8515625 2.890625 C3.10679687 3.66921875 3.36203125 4.4478125 3.625 5.25 C4.01558594 6.40242187 4.01558594 6.40242187 4.4140625 7.578125 C5 10 5 10 5 15 C22.49 15 39.98 15 58 15 C58 13.35 58 11.7 58 10 C58.33 10 58.66 10 59 10 C59 11.98 59 13.96 59 16 C40.85 16 22.7 16 4 16 C3.67 13.03 3.34 10.06 3 7 C2.34 7 1.68 7 1 7 C0.67 4.69 0.34 2.38 0 0 Z " fill="#FFFFFF" transform="translate(191,176)"/>
<path d="M0 0 C2.09574358 -0.00219782 4.19096967 -0.02041585 6.28662109 -0.03930664 C7.62125472 -0.04223896 8.95589083 -0.04422483 10.29052734 -0.04516602 C11.4998291 -0.0492749 12.70913086 -0.05338379 13.95507812 -0.05761719 C16.97021484 0.18530273 16.97021484 0.18530273 19.97021484 2.18530273 C8.42021484 2.18530273 -3.12978516 2.18530273 -15.02978516 2.18530273 C-15.02978516 2.84530273 -15.02978516 3.50530273 -15.02978516 4.18530273 C-18.32978516 4.84530273 -21.62978516 5.50530273 -25.02978516 6.18530273 C-24.69978516 5.52530273 -24.36978516 4.86530273 -24.02978516 4.18530273 C-20.96728516 3.56030273 -20.96728516 3.56030273 -18.02978516 3.18530273 C-18.02978516 2.52530273 -18.02978516 1.86530273 -18.02978516 1.18530273 C-12.07694894 -0.22517193 -6.07834674 -0.00071594 0 0 Z " fill="#000000" transform="translate(1139.02978515625,137.814697265625)"/>
<path d="M0 0 C-8.61810924 6.31994677 -19.852692 5.24353539 -30 5 C-30.33 5.66 -30.66 6.32 -31 7 C-31.33 5.68 -31.66 4.36 -32 3 C-19.625 2.505 -19.625 2.505 -7 2 C-7 1.34 -7 0.68 -7 0 C-2.25 -1.125 -2.25 -1.125 0 0 Z " fill="#000000" transform="translate(957,203)"/>
<path d="M0 0 C0.99 0.495 0.99 0.495 2 1 C2 1.66 2 2.32 2 3 C2.66 3 3.32 3 4 3 C7.90441139 12.43566087 8.6790239 22.34073008 5 32 C4.67 32 4.34 32 4 32 C4 29.03 4 26.06 4 23 C4.66 23 5.32 23 6 23 C5.02522984 16.25356442 3.54592386 10.2489139 0.8046875 3.99609375 C0 2 0 2 0 0 Z " fill="#FFFFFF" transform="translate(1180,203)"/>
<path d="M0 0 C0.66 1.32 1.32 2.64 2 4 C-6.58 4 -15.16 4 -24 4 C-24 3.34 -24 2.68 -24 2 C-16.08 2 -8.16 2 0 2 C0 1.34 0 0.68 0 0 Z " fill="#FFFFFF" transform="translate(976,253)"/>
<path d="M0 0 C5.94 0 11.88 0 18 0 C18.99 2.64 19.98 5.28 21 8 C21.53625 9.010625 22.0725 10.02125 22.625 11.0625 C24.18497761 14.39517945 24.63557403 17.35574026 25 21 C24.34 20.67 23.68 20.34 23 20 C23 19.01 23 18.02 23 17 C22.34 17 21.68 17 21 17 C20.67 14.36 20.34 11.72 20 9 C19.34 9 18.68 9 18 9 C17.67 6.36 17.34 3.72 17 1 C11.39 1 5.78 1 0 1 C0 0.67 0 0.34 0 0 Z " fill="#000000" transform="translate(313,140)"/>
<path d="M0 0 C0 0.66 0 1.32 0 2 C-0.58491211 2.01981934 -1.16982422 2.03963867 -1.77246094 2.06005859 C-4.43208025 2.15553481 -7.09093838 2.26512142 -9.75 2.375 C-10.67039063 2.4059375 -11.59078125 2.436875 -12.5390625 2.46875 C-13.42851562 2.50742188 -14.31796875 2.54609375 -15.234375 2.5859375 C-16.05131836 2.6173584 -16.86826172 2.6487793 -17.70996094 2.68115234 C-20.18132791 3.02524672 -21.79905052 3.86568185 -24 5 C-27.25 5.125 -27.25 5.125 -30 5 C-27 3 -27 3 -23 3 C-23 2.34 -23 1.68 -23 1 C-15.34916042 -0.24911667 -7.72559014 -0.09053426 0 0 Z " fill="#FFFFFF" transform="translate(151,144)"/>
<path d="M0 0 C0.66 0.33 1.32 0.66 2 1 C0.61240749 2.61130023 -0.78545623 4.21375841 -2.1875 5.8125 C-2.96480469 6.70582031 -3.74210937 7.59914062 -4.54296875 8.51953125 C-6.89417119 10.8931617 -9.06791184 12.43240047 -12 14 C-12 11 -12 11 -10.3203125 8.95703125 C-9.23363281 7.89548828 -9.23363281 7.89548828 -8.125 6.8125 C-7.04605469 5.73935547 -7.04605469 5.73935547 -5.9453125 4.64453125 C-4 3 -4 3 -2 3 C-2 2.34 -2 1.68 -2 1 C-1.34 0.67 -0.68 0.34 0 0 Z " fill="#FFFFFF" transform="translate(113,153)"/>
<path d="M0 0 C1.0209375 0.2165625 1.0209375 0.2165625 2.0625 0.4375 C9.28805576 1.82111706 16.08418551 2.12469459 23.4375 2.0625 C24.45521484 2.05798828 25.47292969 2.05347656 26.52148438 2.04882812 C29.01438509 2.03712437 31.50716074 2.02072848 34 2 C32 4 32 4 29.88037109 4.24291992 C28.58993896 4.23675659 28.58993896 4.23675659 27.2734375 4.23046875 C25.84837891 4.22756836 25.84837891 4.22756836 24.39453125 4.22460938 C23.39808594 4.21236328 22.40164063 4.20011719 21.375 4.1875 C20.40175781 4.18685547 19.42851563 4.18621094 18.42578125 4.18554688 C12.86385989 4.15186094 7.50173401 3.81676574 2 3 C2 2.34 2 1.68 2 1 C1.34 0.67 0.68 0.34 0 0 Z " fill="#FFFFFF" transform="translate(786,254)"/>
<path d="M0 0 C7.26 0.66 14.52 1.32 22 2 C22 2.66 22 3.32 22 4 C23.32 4.33 24.64 4.66 26 5 C19.25 5.125 19.25 5.125 17 4 C13.43464202 3.47425328 9.86202088 3.03782884 6.28515625 2.59765625 C3 2 3 2 0 0 Z " fill="#FFFFFF" transform="translate(1130,186)"/>
<path d="M0 0 C0.66 0.33 1.32 0.66 2 1 C0.5484451 2.67257355 -0.91144409 4.33791758 -2.375 6 C-3.18710938 6.928125 -3.99921875 7.85625 -4.8359375 8.8125 C-5.55007813 9.534375 -6.26421875 10.25625 -7 11 C-7.66 11 -8.32 11 -9 11 C-9.33 11.99 -9.66 12.98 -10 14 C-10.33 13.34 -10.66 12.68 -11 12 C-10.67 11.01 -10.34 10.02 -10 9 C-9.34 9 -8.68 9 -8 9 C-7.67 8.01 -7.34 7.02 -7 6 C-6.34 6 -5.68 6 -5 6 C-4.67 5.01 -4.34 4.02 -4 3 C-1.9375 1.3125 -1.9375 1.3125 0 0 Z " fill="#000000" transform="translate(1112,144)"/>
<path d="M0 0 C0.66 0 1.32 0 2 0 C2 1.65 2 3.3 2 5 C2.66 5 3.32 5 4 5 C4.4813341 6.72856459 4.95996971 8.45788071 5.4375 10.1875 C5.70433594 11.15042969 5.97117187 12.11335937 6.24609375 13.10546875 C6.92880018 15.72663697 7.49892195 18.338935 8 21 C4.31843918 18.54562612 4.35998258 17.51374923 3.4375 13.3125 C3.19257813 12.24128906 2.94765625 11.17007813 2.6953125 10.06640625 C2.46585937 9.05449219 2.23640625 8.04257813 2 7 C1.36779101 4.65458269 0.6883177 2.32969068 0 0 Z " fill="#FFFFFF" transform="translate(314,146)"/>
<path d="M0 0 C5.28 0.66 10.56 1.32 16 2 C16 2.66 16 3.32 16 4 C16.99 4.33 17.98 4.66 19 5 C16.50907189 6.24546405 15.58919267 5.7767578 13 5 C13 4.34 13 3.68 13 3 C8.71 2.67 4.42 2.34 0 2 C0 1.34 0 0.68 0 0 Z " fill="#FFFFFF" transform="translate(1143,206)"/>
<path d="M0 0 C0.5775 0.226875 1.155 0.45375 1.75 0.6875 C0.76 1.0175 -0.23 1.3475 -1.25 1.6875 C-3.06346266 3.5519281 -3.06346266 3.5519281 -4.8125 5.75 C-5.91501188 7.09909519 -7.05310688 8.42138897 -8.25 9.6875 C-8.91 9.6875 -9.57 9.6875 -10.25 9.6875 C-9.92 8.3675 -9.59 7.0475 -9.25 5.6875 C-8.59 5.6875 -7.93 5.6875 -7.25 5.6875 C-6.92 4.6975 -6.59 3.7075 -6.25 2.6875 C-3.03057242 -0.42091284 -3.03057242 -0.42091284 0 0 Z " fill="#FFFFFF" transform="translate(1126.25,154.3125)"/>
<path d="M0 0 C1.56135347 3.12270693 0.19938014 5.30517558 -0.8125 8.5625 C-1.16957031 9.73941406 -1.52664063 10.91632813 -1.89453125 12.12890625 C-3 15 -3 15 -5 16 C-4.34 12.37 -3.68 8.74 -3 5 C-2.34 5 -1.68 5 -1 5 C-0.67 3.35 -0.34 1.7 0 0 Z " fill="#FFFFFF" transform="translate(406,165)"/>
<path d="M0 0 C0.66 0.33 1.32 0.66 2 1 C0.20578369 5.0369867 -1.20551875 7.64480474 -5 10 C-5.66 9.67 -6.32 9.34 -7 9 C-4.69 6.03 -2.38 3.06 0 0 Z " fill="#FFFFFF" transform="translate(225,263)"/>
<path d="M0 0 C-1.98 0.33 -3.96 0.66 -6 1 C-6 1.66 -6 2.32 -6 3 C-9.3 3.66 -12.6 4.32 -16 5 C-15.67 4.34 -15.34 3.68 -15 3 C-11.9375 2.375 -11.9375 2.375 -9 2 C-9 1.34 -9 0.68 -9 0 C-5.62182575 -0.84454356 -3.32534757 -1.10844919 0 0 Z " fill="#FFFFFF" transform="translate(1130,139)"/>
<path d="M0 0 C2.67868487 1.33934244 2.74954078 2.51692397 3.6875 5.3125 C4.09548828 6.48232422 4.09548828 6.48232422 4.51171875 7.67578125 C5.03839183 10.18274511 4.8178554 11.60132343 4 14 C3 13 3 13 2.9375 9.9375 C2.958125 8.968125 2.97875 7.99875 3 7 C2.34 7 1.68 7 1 7 C0.67 4.69 0.34 2.38 0 0 Z " fill="#FFFFFF" transform="translate(191,176)"/>
<path d="M0 0 C2.64 0 5.28 0 8 0 C8 0.33 8 0.66 8 1 C2.89665983 2.905247 -1.46342706 4.42589023 -7 4 C-4 2 -4 2 0 2 C0 1.34 0 0.68 0 0 Z " fill="#FFFFFF" transform="translate(128,145)"/>
<path d="M0 0 C0.66 0.33 1.32 0.66 2 1 C1.57692877 2.31722179 1.13602514 3.62872664 0.6875 4.9375 C0.44386719 5.66839844 0.20023438 6.39929688 -0.05078125 7.15234375 C-1 9 -1 9 -4 10 C-3.67 8.68 -3.34 7.36 -3 6 C-2.34 6 -1.68 6 -1 6 C-0.67 4.02 -0.34 2.04 0 0 Z " fill="#FFFFFF" transform="translate(234,249)"/>
<path d="M0 0 C-3.95523655 2.75668002 -7.22423661 3.5317879 -12 4 C-11.67 3.34 -11.34 2.68 -11 2 C-9.68 2 -8.36 2 -7 2 C-7 1.34 -7 0.68 -7 0 C-2.25 -1.125 -2.25 -1.125 0 0 Z " fill="#000000" transform="translate(957,203)"/>
<path d="M0 0 C1 2 1 2 0.44140625 4.1640625 C0.15136719 4.97617188 -0.13867188 5.78828125 -0.4375 6.625 C-0.72496094 7.44226563 -1.01242187 8.25953125 -1.30859375 9.1015625 C-1.53675781 9.72804687 -1.76492188 10.35453125 -2 11 C-2.33 11 -2.66 11 -3 11 C-3.32613618 6.32538149 -2.70582788 3.83325617 0 0 Z " fill="#FFFFFF" transform="translate(370,217)"/>
</svg>
